<?xml version="1.0" standalone="no"?>
<!DOCTYPE svg PUBLIC "-//W3C//DTD SVG 1.1//EN" "http://www.w3.org/Graphics/SVG/1.1/DTD/svg11.dtd">
<svg t="1722076945504" class="icon" viewBox="0 0 1024 1024" version="1.1"
    xmlns="http://www.w3.org/2000/svg" p-id="6176" xmlns:xlink="http://www.w3.org/1999/xlink"
    width="48" height="48">
    <path
        d="M551.68 512.96l34.56 34.56-39.2 39.04a65.6 65.6 0 0 0-72.32 57.6 75.36 75.36 0 0 0 0 14.72l-128 128L304 829.92l-96-96L379.04 563.2a65.28 65.28 0 0 0 72.16-57.6 56.64 56.64 0 0 0 0-14.72l39.2-39.04 34.4 34.4 169.12-168.96-5.92-6.24 26.08-32L800 224l13.92 13.92-54.56 86.08-32 26.24-6.08-6.24z"
        fill="#FF5722" p-id="6177"></path>
    <path
        d="M483.04 383.04l64 63.04-22.08 22.08-34.4-34.56-55.36 55.52 0.8 7.2v5.6a52.32 52.32 0 0 1-1.28 11.2l-40.48-40.48a18.24 18.24 0 0 1-2.4-2.56 133.6 133.6 0 0 1-164.8-163.52l75.68 75.68 74.08-19.84L396.96 288l-75.52-75.52a133.28 133.28 0 0 1 161.6 170.4z m45.28 224a54.08 54.08 0 0 1 16-1.12l7.36 0.96 44.16-44.32 10.72-10.72-33.6-35.04 21.92-21.92L794.56 694.4a63.04 63.04 0 1 1-89.12 89.6L528 606.56z m245.6 153.92l8.48-32L756.8 704l-32 8.48-8.48 32 25.6 25.6z"
        fill="#8E5C5C" p-id="6178"></path>
</svg>