<?xml version="1.0" standalone="no"?><!DOCTYPE svg PUBLIC "-//W3C//DTD SVG 1.1//EN" "http://www.w3.org/Graphics/SVG/1.1/DTD/svg11.dtd"><svg t="1722076890014" class="icon" viewBox="0 0 1024 1024" version="1.1" xmlns="http://www.w3.org/2000/svg" p-id="4289" xmlns:xlink="http://www.w3.org/1999/xlink" width="48" height="48"><path d="M885.32 288.06H736.17v-74.69c0-41.27-33.64-74.68-74.91-74.68H362.74c-41.27 0-74.68 33.42-74.68 74.68v74.69H138.69c-41.27 0-74.69 33.42-74.69 74.46v448.11c0 41.49 33.42 74.68 74.69 74.68h746.63c41.27 0 74.68-33.19 74.68-74.68V362.52c0-41.05-33.42-74.46-74.68-74.46zM181.75 437.2c-20.63 0-37.45-16.6-37.45-37.23 0-20.63 16.82-37.46 37.23-37.46 20.63 0 37.45 16.82 37.45 37.46s-16.82 37.23-37.23 37.23z m330.36 388.01c-130.75 0-237.74-106.98-237.74-238.18 0-131.21 106.53-237.29 237.74-237.29s237.74 106.08 237.74 237.29c-0.45 131.64-106.53 238.18-237.74 238.18z" fill="#469AD5" p-id="4290"></path><path d="M512.11 474.43c-62.35 0-113.04 50.46-113.04 112.81S449.76 700.5 512.11 700.5s112.81-50.69 113.04-113.26c0-62.34-50.69-112.81-113.04-112.81z" fill="#469AD5" p-id="4291"></path></svg>