<?xml version="1.0" standalone="no"?><!DOCTYPE svg PUBLIC "-//W3C//DTD SVG 1.1//EN" "http://www.w3.org/Graphics/SVG/1.1/DTD/svg11.dtd"><svg t="1722077064116" class="icon" viewBox="0 0 1024 1024" version="1.1" xmlns="http://www.w3.org/2000/svg" p-id="10462" xmlns:xlink="http://www.w3.org/1999/xlink" width="48" height="48"><path d="M512 0C228.864 0 0 228.864 0 512s228.864 512 512 512 512-228.864 512-512S795.136 0 512 0z" fill="#26DC9F" p-id="10463"></path><path d="M822.784 512c-13.824 13.824-30.72 13.824-44.544 0l-242.176-242.176v563.2c0 16.896-13.824 30.72-30.72 30.72s-30.72-13.824-30.72-30.72V272.896l-225.28 239.104c-6.656 6.656-13.824 10.24-24.064 10.24-6.656 0-16.896-3.584-20.48-10.24-13.824-13.824-13.824-34.304 0-44.544l276.48-296.96c6.656-6.656 13.824-10.24 20.48-10.24 10.24 0 16.896 3.584 24.064 10.24l296.96 296.96c13.312 10.24 13.312 30.72 0 44.544z" fill="#FFFFFF" p-id="10464"></path></svg>