<?xml version="1.0" standalone="no"?><!DOCTYPE svg PUBLIC "-//W3C//DTD SVG 1.1//EN" "http://www.w3.org/Graphics/SVG/1.1/DTD/svg11.dtd"><svg t="1732929869898" class="icon" viewBox="0 0 1024 1024" version="1.1" xmlns="http://www.w3.org/2000/svg" p-id="5139" xmlns:xlink="http://www.w3.org/1999/xlink" width="48" height="48"><path d="M853.333 448v-85.333A21.333 21.333 0 0 0 832 341.333H618.667A21.333 21.333 0 0 1 597.333 320V192A21.333 21.333 0 0 0 576 170.667H448A21.333 21.333 0 0 0 426.667 192v128a21.333 21.333 0 0 1-21.334 21.333H192a21.333 21.333 0 0 0-21.333 21.334V448A21.333 21.333 0 0 0 192 469.333h640A21.333 21.333 0 0 0 853.333 448zM896 554.667V896a42.667 42.667 0 0 1-42.667 42.667H448a21.333 21.333 0 0 1-21.333-21.334v-192a42.667 42.667 0 0 0-85.334 0v192A21.333 21.333 0 0 1 320 938.667H170.667A42.667 42.667 0 0 1 128 896V554.667h-21.333a21.333 21.333 0 0 1-21.334-21.334V298.667A42.667 42.667 0 0 1 128 256h213.333V128A42.667 42.667 0 0 1 384 85.333h256A42.667 42.667 0 0 1 682.667 128v128H896a42.667 42.667 0 0 1 42.667 42.667v234.666a21.333 21.333 0 0 1-21.334 21.334H896z" fill="#14D081" p-id="5140"></path></svg>