<svg t="1739605871327" class="icon" viewBox="0 0 1024 1024" version="1.1" xmlns="http://www.w3.org/2000/svg" p-id="5970" width="48" height="48"><path d="M905.508571 921.6H107.52a88.502857 88.502857 0 0 1-87.771429-88.502857V212.845714a87.771429 87.771429 0 0 1 87.771429-87.771428h797.988571a88.502857 88.502857 0 0 1 88.502858 87.771428v620.251429a88.502857 88.502857 0 0 1-88.502858 88.502857zM107.52 212.845714v620.251429h797.988571V212.845714z" fill="#1296db" p-id="5971"></path><path d="M950.857143 389.851429H63.634286a43.885714 43.885714 0 0 1-43.885715-43.885715V212.845714a87.771429 87.771429 0 0 1 87.771429-87.771428h797.988571a88.502857 88.502857 0 0 1 88.502858 87.771428v133.12a43.885714 43.885714 0 0 1-43.154286 43.885715zM107.52 302.08h798.72V212.845714H107.52zM484.937143 788.48h-8.045714a43.885714 43.885714 0 0 1-38.034286-51.2l44.617143-244.297143A43.885714 43.885714 0 1 1 571.977143 512l-44.617143 243.565714a43.154286 43.154286 0 0 1-42.422857 32.914286zM661.942857 788.48a46.08 46.08 0 0 1-31.451428-12.434286 44.617143 44.617143 0 0 1 0-62.171428L731.428571 615.131429l-98.011428-80.457143a43.885714 43.885714 0 0 1-5.12-61.44 43.154286 43.154286 0 0 1 61.44-5.851429l133.12 110.445714a45.348571 45.348571 0 0 1 0 65.097143l-130.194286 133.12a46.08 46.08 0 0 1-30.72 12.434286zM351.817143 788.48a46.08 46.08 0 0 1-31.451429-12.434286L187.245714 642.925714a45.348571 45.348571 0 0 1-12.434285-32.914285 48.274286 48.274286 0 0 1 15.36-32.182858l133.12-110.445714a43.885714 43.885714 0 0 1 62.171428 5.851429 43.154286 43.154286 0 0 1-5.851428 61.44l-95.817143 80.457143 98.742857 98.742857a43.154286 43.154286 0 0 1 0 62.171428 46.08 46.08 0 0 1-30.72 12.434286z" fill="#1296db" p-id="5972"></path></svg>