<?xml version="1.0" standalone="no"?><!DOCTYPE svg PUBLIC "-//W3C//DTD SVG 1.1//EN" "http://www.w3.org/Graphics/SVG/1.1/DTD/svg11.dtd"><svg t="1720843873379" class="icon" viewBox="0 0 1024 1024" version="1.1" xmlns="http://www.w3.org/2000/svg" p-id="22477" xmlns:xlink="http://www.w3.org/1999/xlink" width="48" height="48"><path d="M76.6976 321.7408m133.12 0l612.7104 0q133.12 0 133.12 133.12l0 389.4784q0 133.12-133.12 133.12l-612.7104 0q-133.12 0-133.12-133.12l0-389.4784q0-133.12 133.12-133.12Z" fill="#FC6564" p-id="22478"></path><path d="M355.0208 321.7408V296.96a161.1776 161.1776 0 0 1 322.304 0v24.8832h102.4V296.96a263.5776 263.5776 0 0 0-527.104 0v24.8832zM516.1472 796.8256a147.2512 147.2512 0 1 1 147.2512-147.2512 147.456 147.456 0 0 1-147.2512 147.2512z m0-192.0512a44.8512 44.8512 0 1 0 44.8512 44.8 44.9024 44.9024 0 0 0-44.8512-44.8z" fill="#F8DEDE" p-id="22479"></path></svg>