<?xml version="1.0" standalone="no"?><!DOCTYPE svg PUBLIC "-//W3C//DTD SVG 1.1//EN" "http://www.w3.org/Graphics/SVG/1.1/DTD/svg11.dtd"><svg t="1723183796867" class="icon" viewBox="0 0 1024 1024" version="1.1" xmlns="http://www.w3.org/2000/svg" p-id="6202" xmlns:xlink="http://www.w3.org/1999/xlink" width="200" height="200"><path d="M871.382647 326.218313L526.330268 670.861255l-279.952019 70.934827 87.414634-276.983607L778.747701 57.218713l172.986805 153.640943z" fill="#8CC1FD" p-id="6203"></path><path d="M926.554178 1024H98.981208c-53.226709 0-96.626949-41.2507-96.62695-92.020792V92.020792C2.456617 41.2507 45.754498 0 98.981208 0h271.251499c18.322271 0 33.164334 14.842063 33.164334 33.061975 0 18.322271-14.842063 33.061975-33.164334 33.061975h-271.251499c-16.786885 0-30.40064 11.566573-30.40064 25.794483v840.060775c0 14.227909 13.613754 25.794482 30.40064 25.794483H926.554178c16.786885 0 30.40064-11.566573 30.40064-25.794483V530.117553c0-18.322271 14.842063-33.061975 33.164334-33.061975s33.061975 14.842063 33.061976 33.061975v401.964014c0 50.667733-43.40024 91.918433-96.62695 91.918433z m0 0" fill="#30567E" p-id="6204"></path><path d="M234.811675 798.912435c-9.417033 0-18.42463-3.582567-25.077968-10.338265-9.417033-9.519392-12.590164-23.644942-8.086366-36.84926l90.178329-266.235906c5.834466-17.298681 24.668533-26.613355 41.967213-20.778888 17.298681 5.834466 26.613355 24.668533 20.778888 41.967213l-70.52539 208.403039 200.623751-65.509796c17.40104-5.629748 36.030388 3.787285 41.762495 21.188324 5.629748 17.40104-3.787285 36.030388-21.188325 41.762495l-258.661335 84.446222c-3.889644 1.330668-7.779288 1.944822-11.771292 1.944822z m476.174331-669.837665l160.499 160.499-46.778089 46.778089-160.601359-160.499 46.880448-46.778089z m0 0" fill="#30567E" p-id="6205"></path><path d="M485.079568 712.930828c-19.755298 0-38.282287-7.676929-52.203119-21.597761l-8.291083-8.291084-1.228309-11.771291c-3.377849-32.959616-11.464214-70.218313-17.503398-80.966014-10.542983-5.117953-45.037985-11.054778-75.336266-12.9996l-12.487805-0.818872-8.905238-8.802879c-28.762895-28.762895-28.762895-75.643343 0-104.508597L728.079968 44.219112c13.920832-13.920832 32.447821-21.597761 52.203119-21.597761s38.282287 7.676929 52.203119 21.597761L956.238305 167.868852c28.762895 28.762895 28.762895 75.643343 0 104.508597L537.282687 691.230708c-13.920832 14.023191-32.447821 21.70012-52.203119 21.70012zM354.162335 512.818872c7.267493 0.716513 15.865654 1.842463 24.97561 3.173131 48.006397 7.369852 64.076769 17.810476 72.67493 26.203919 9.007597 8.70052 20.57417 25.077969 30.298281 75.233906 1.842463 9.621751 3.480208 19.345862 4.810875 28.967613 1.330668-0.307077 2.558976-1.023591 3.582567-2.047181l418.955618-418.955618c2.968413-2.968413 2.968413-7.779288 0-10.85006L785.708117 90.997201c-1.433027-1.433027-3.377849-2.251899-5.42503-2.251899-1.433027 0-3.582567 0.409436-5.42503 2.251899L356.004798 509.952819c-0.818872 0.818872-1.433027 1.842463-1.842463 2.866053z m0 0" fill="#30567E" p-id="6206"></path></svg>