<?xml version="1.0" standalone="no"?><!DOCTYPE svg PUBLIC "-//W3C//DTD SVG 1.1//EN" "http://www.w3.org/Graphics/SVG/1.1/DTD/svg11.dtd"><svg t="1720839395149" class="icon" viewBox="0 0 1024 1024" version="1.1" xmlns="http://www.w3.org/2000/svg" p-id="6260" xmlns:xlink="http://www.w3.org/1999/xlink" width="48" height="48"><path d="M0 960a64 64 0 0 0 64 64h896a64 64 0 0 0 64-64V256a64 64 0 0 0-64-64H64a64 64 0 0 0-64 64v704z" fill="#469FCC" p-id="6261"></path><path d="M960 480V288a32 32 0 0 0-32-32H96a32 32 0 0 0-32 32v192h896z" fill="" p-id="6262"></path><path d="M768 640m-64 0a64 64 0 1 0 128 0 64 64 0 1 0-128 0Z" fill="" p-id="6263"></path><path d="M256 640m-64 0a64 64 0 1 0 128 0 64 64 0 1 0-128 0Z" fill="" p-id="6264"></path><path d="M800 640a32 32 0 0 1-32 32H256a32 32 0 1 1 0-64h512a32 32 0 0 1 32 32z" fill="#EACA44" p-id="6265"></path><path d="M768 672H256a31.52 31.52 0 0 1-27.104-16A30.88 30.88 0 0 0 224 672a32 32 0 0 0 32 32h512a32 32 0 0 0 32-32 30.88 30.88 0 0 0-4.896-16 31.52 31.52 0 0 1-27.104 16z" fill="" p-id="6266"></path><path d="M64 448h64v32H64zM896 448h64v32h-64z" fill="" p-id="6267"></path><path d="M832 0H192a64 64 0 0 0-64 64v160a64 64 0 0 1 64-64h640a64 64 0 0 1 64 64V64a64 64 0 0 0-64-64z" fill="#EAEAEA" p-id="6268"></path><path d="M832 64H192a64 64 0 0 0-64 64v32a64 64 0 0 1 64-64h640a64 64 0 0 1 64 64V128a64 64 0 0 0-64-64z" fill="" p-id="6269"></path><path d="M832 0H192a64 64 0 0 0-64 64v32a64 64 0 0 1 64-64h640a64 64 0 0 1 64 64V64a64 64 0 0 0-64-64zM832 128H192a64 64 0 0 0-64 64v32a64 64 0 0 1 64-64h640a64 64 0 0 1 64 64V192a64 64 0 0 0-64-64z" fill="" p-id="6270"></path><path d="M896 480V224a64 64 0 0 0-64-64H192a64 64 0 0 0-64 64v256h768z" fill="#EAEAEA" p-id="6271"></path><path d="M128 448h768v32H128zM736 320a32 32 0 0 1-32 32H320a32 32 0 1 1 0-64h384a32 32 0 0 1 32 32z" fill="" p-id="6272"></path></svg>