<?xml version="1.0" standalone="no"?><!DOCTYPE svg PUBLIC "-//W3C//DTD SVG 1.1//EN" "http://www.w3.org/Graphics/SVG/1.1/DTD/svg11.dtd"><svg t="1720839489466" class="icon" viewBox="0 0 1024 1024" version="1.1" xmlns="http://www.w3.org/2000/svg" p-id="10973" xmlns:xlink="http://www.w3.org/1999/xlink" width="48" height="48"><path d="M167.907 539.174h96.469v35.08h-96.47z m373.598-24.556a56.829 56.829 0 0 0-25.258-5.963 70.16 70.16 0 0 0-17.189 2.455A1157.628 1157.628 0 0 0 386.102 330.1l-29.116 16.136a992.052 992.052 0 0 0 109.8 187.676 56.829 56.829 0 0 0-10.525 32.975 58.583 58.583 0 1 0 116.815 0 43.499 43.499 0 0 0 0-11.576 552.855 552.855 0 0 0 96.82-111.203c-9.471-8.419-18.592-17.189-27.713-25.959a582.673 582.673 0 0 0-100.678 96.47z m-35.08 276.428h33.326v96.469h-33.326z m175.398-68.405l70.16 68.405 23.503-23.503-68.405-68.406z m-324.837 15.785l-23.503-23.503-70.16 68.405 24.556 23.504z m-16.488-371.844l-68.405-68.405-23.503 23.503 67.353 68.406z m416.396-60.337l-23.504-23.503-66.65 68.054 23.502 23.504z m0 210.478h96.469v33.326h-96.47z m-245.558 431.48a401.311 401.311 0 0 1-70.159-796.308l4.21 64.196L622.539 95.417 431.706 0l5.261 76.474A476.732 476.732 0 1 0 988.07 572.149l-75.772-3.859a400.61 400.61 0 0 1-400.26 378.86z m400.96-400.96h75.422a475.68 475.68 0 0 0-17.54-128.041l-72.615 20.346a396.75 396.75 0 0 1 14.734 107.694z m-19.293-126.287l70.16-23.504a467.612 467.612 0 0 0-39.992-89.804l-63.845 38.237a392.892 392.892 0 0 1 35.08 75.421z m-45.253-93.663l64.547-41.394a507.602 507.602 0 0 0-61.39-75.421l-53.672 54.373a409.73 409.73 0 0 1 50.515 62.442zM831.613 193.64a479.188 479.188 0 0 0-97.17-68.055l-35.08 66.651a391.138 391.138 0 0 1 82.087 57.18z" fill="#027AFF" p-id="10974"></path></svg>